<svg aria-hidden="true" style="width:0;height:0;position:absolute;overflow:hidden" xmlns="http://www.w3.org/2000/svg"><defs><symbol id="icon-alert-circle" viewBox="0 0 24 24"><path d="M23 12c0-3.037-1.232-5.789-3.222-7.778S15.037 1 12 1 6.211 2.232 4.222 4.222 1 8.963 1 12s1.232 5.789 3.222 7.778S8.963 23 12 23s5.789-1.232 7.778-3.222S23 15.037 23 12zm-2 0c0 2.486-1.006 4.734-2.636 6.364S14.486 21 12 21s-4.734-1.006-6.364-2.636S3 14.486 3 12s1.006-4.734 2.636-6.364S9.514 3 12 3s4.734 1.006 6.364 2.636S21 9.514 21 12zM11 8v4a1 1 0 0 0 2 0V8a1 1 0 0 0-2 0zm1 9a1 1 0 1 0 0-2 1 1 0 0 0 0 2z"/></symbol><symbol id="icon-alert-triangle" viewBox="0 0 24 24"><path d="M11.148 4.374a.973.973 0 0 1 .334-.332c.236-.143.506-.178.756-.116s.474.216.614.448l8.466 14.133c.07.12.119.268.128.434-.015.368-.119.591-.283.759a.988.988 0 0 1-.693.301L3.533 20a.997.997 0 0 1-.855-1.486zM9.432 3.346l-8.47 14.14c-.422.731-.506 1.55-.308 2.29s.68 1.408 1.398 1.822c.464.268.976.4 1.475.402H20.47a3 3 0 0 0 2.572-4.507L14.568 3.346a2.995 2.995 0 0 0-4.123-1.014c-.429.26-.775.615-1.012 1.014zM11 9v4a1 1 0 0 0 2 0V9a1 1 0 0 0-2 0zm1 9a1 1 0 1 0 0-2 1 1 0 0 0 0 2z"/></symbol><symbol id="icon-arrow-left" viewBox="0 0 24 24"><path d="M12.707 18.293 7.414 13H19a1 1 0 0 0 0-2H7.414l5.293-5.293a.999.999 0 1 0-1.414-1.414l-7 7a.998.998 0 0 0 0 1.414l7 7a.999.999 0 1 0 1.414-1.414z"/></symbol><symbol id="icon-arrow-right" viewBox="0 0 24 24"><path d="M11.293 5.707 16.586 11H5a1 1 0 0 0 0 2h11.586l-5.293 5.293a.999.999 0 1 0 1.414 1.414l7-7a1.006 1.006 0 0 0 0-1.414l-7-7a.999.999 0 1 0-1.414 1.414z"/></symbol><symbol id="icon-bookmark" viewBox="0 0 24 24"><path d="M18.419 21.814A1 1 0 0 0 20 21V5a2.997 2.997 0 0 0-3-3H7a2.997 2.997 0 0 0-3 3v16a1 1 0 0 0 1.581.813L12 17.229zM18 19.057l-5.419-3.871a1 1 0 0 0-1.162 0L6 19.057V5c0-.276.111-.525.293-.707S6.724 4 7 4h10c.276 0 .525.111.707.293S18 4.724 18 5z"/></symbol><symbol id="icon-bookmark-fill" viewBox="0 0 24 24"><path d="M18.419 21.814 19 22l1-1V5l-.879-2.121L17 2H7l-2.121.879L4 5v16l.186.581 1.395.232L12 17.229z"/></symbol><symbol id="icon-check" viewBox="0 0 24 24"><path d="M19.293 5.293 9 15.586l-4.293-4.293a.999.999 0 1 0-1.414 1.414l5 5a.999.999 0 0 0 1.414 0l11-11a.999.999 0 1 0-1.414-1.414z"/></symbol><symbol id="icon-clock" viewBox="0 0 24 24"><path d="M23 12c0-3.037-1.232-5.789-3.222-7.778S15.037 1 12 1 6.211 2.232 4.222 4.222 1 8.963 1 12s1.232 5.789 3.222 7.778S8.963 23 12 23s5.789-1.232 7.778-3.222S23 15.037 23 12zm-2 0c0 2.486-1.006 4.734-2.636 6.364S14.486 21 12 21s-4.734-1.006-6.364-2.636S3 14.486 3 12s1.006-4.734 2.636-6.364S9.514 3 12 3s4.734 1.006 6.364 2.636S21 9.514 21 12zM11 6v6a1 1 0 0 0 .553.894l4 2a1 1 0 0 0 .895-1.789L13 11.382V6a1 1 0 0 0-2 0z"/></symbol><symbol id="icon-edit" viewBox="0 0 24 24"><path d="M11 3H4a2.997 2.997 0 0 0-3 3v14a2.997 2.997 0 0 0 3 3h14a2.997 2.997 0 0 0 3-3v-7a1 1 0 0 0-2 0v7c0 .276-.111.525-.293.707S18.276 21 18 21H4c-.276 0-.525-.111-.707-.293S3 20.276 3 20V6c0-.276.111-.525.293-.707S3.724 5 4 5h7a1 1 0 0 0 0-2zm6.793-1.207-9.5 9.5a.992.992 0 0 0-.263.465l-1 4a1 1 0 0 0 1.213 1.213l4-1c.167-.041.33-.129.465-.263l9.5-9.5c.609-.609.914-1.41.914-2.207s-.305-1.598-.914-2.207a3.119 3.119 0 0 0-4.415-.001zm1.414 1.414c.219-.219.504-.328.793-.328s.574.109.793.328.328.504.328.793-.109.574-.328.793l-9.304 9.304-2.114.529.529-2.114z"/></symbol><symbol id="icon-loader" viewBox="0 0 24 24"><path d="M11 2v4a1 1 0 0 0 2 0V2a1 1 0 0 0-2 0zm0 16v4a1 1 0 0 0 2 0v-4a1 1 0 0 0-2 0zM4.223 5.637l2.83 2.83a.999.999 0 1 0 1.414-1.414l-2.83-2.83a.999.999 0 1 0-1.414 1.414zm11.31 11.31 2.83 2.83a.999.999 0 1 0 1.414-1.414l-2.83-2.83a.999.999 0 1 0-1.414 1.414zM2 13h4a1 1 0 0 0 0-2H2a1 1 0 0 0 0 2zm16 0h4a1 1 0 0 0 0-2h-4a1 1 0 0 0 0 2zM5.637 19.777l2.83-2.83a.999.999 0 1 0-1.414-1.414l-2.83 2.83a.999.999 0 1 0 1.414 1.414zm11.31-11.31 2.83-2.83a.999.999 0 1 0-1.414-1.414l-2.83 2.83a.999.999 0 1 0 1.414 1.414z"/></symbol><symbol id="icon-minus-circle" viewBox="0 0 24 24"><path d="M23 12c0-3.037-1.232-5.789-3.222-7.778S15.037 1 12 1 6.211 2.232 4.222 4.222 1 8.963 1 12s1.232 5.789 3.222 7.778S8.963 23 12 23s5.789-1.232 7.778-3.222S23 15.037 23 12zm-2 0c0 2.486-1.006 4.734-2.636 6.364S14.486 21 12 21s-4.734-1.006-6.364-2.636S3 14.486 3 12s1.006-4.734 2.636-6.364S9.514 3 12 3s4.734 1.006 6.364 2.636S21 9.514 21 12zM8 13h8a1 1 0 0 0 0-2H8a1 1 0 0 0 0 2z"/></symbol><symbol id="icon-plus-circle" viewBox="0 0 24 24"><path d="M23 12c0-3.037-1.232-5.789-3.222-7.778S15.037 1 12 1 6.211 2.232 4.222 4.222 1 8.963 1 12s1.232 5.789 3.222 7.778S8.963 23 12 23s5.789-1.232 7.778-3.222S23 15.037 23 12zm-2 0c0 2.486-1.006 4.734-2.636 6.364S14.486 21 12 21s-4.734-1.006-6.364-2.636S3 14.486 3 12s1.006-4.734 2.636-6.364S9.514 3 12 3s4.734 1.006 6.364 2.636S21 9.514 21 12zM8 13h3v3a1 1 0 0 0 2 0v-3h3a1 1 0 0 0 0-2h-3V8a1 1 0 0 0-2 0v3H8a1 1 0 0 0 0 2z"/></symbol><symbol id="icon-search" viewBox="0 0 24 24"><path d="M16.041 15.856a.995.995 0 0 0-.186.186A6.97 6.97 0 0 1 11 18c-1.933 0-3.682-.782-4.95-2.05S4 12.933 4 11s.782-3.682 2.05-4.95S9.067 4 11 4s3.682.782 4.95 2.05S18 9.067 18 11a6.971 6.971 0 0 1-1.959 4.856zm5.666 4.437-3.675-3.675A8.967 8.967 0 0 0 20 11c0-2.485-1.008-4.736-2.636-6.364S13.485 2 11 2 6.264 3.008 4.636 4.636 2 8.515 2 11s1.008 4.736 2.636 6.364S8.515 20 11 20a8.967 8.967 0 0 0 5.618-1.968l3.675 3.675a.999.999 0 1 0 1.414-1.414z"/></symbol><symbol id="icon-send" viewBox="0 0 24 24"><path d="M22.963 2.269a1.014 1.014 0 0 0-.354-1.063.99.99 0 0 0-.812-.185 1.122 1.122 0 0 0-.126.035l-.021.007L1.67 8.056a.999.999 0 0 0-.076 1.858l8.649 3.844 3.844 8.649a1 1 0 0 0 1.857-.076l6.993-19.979c.01-.027.019-.054.027-.082zm-12.184 9.538L4.711 9.111l13.483-4.72zm8.83-6.001-4.72 13.483-2.696-6.068z"/></symbol><symbol id="icon-smile" viewBox="0 0 24 24"><path d="M23 12c0-3.037-1.232-5.789-3.222-7.778S15.037 1 12 1 6.211 2.232 4.222 4.222 1 8.963 1 12s1.232 5.789 3.222 7.778S8.963 23 12 23s5.789-1.232 7.778-3.222S23 15.037 23 12zm-2 0c0 2.486-1.006 4.734-2.636 6.364S14.486 21 12 21s-4.734-1.006-6.364-2.636S3 14.486 3 12s1.006-4.734 2.636-6.364S9.514 3 12 3s4.734 1.006 6.364 2.636S21 9.514 21 12zM7.2 14.6s.131.173.331.383a6.776 6.776 0 0 0 1.874 1.393c.705.352 1.579.624 2.595.624s1.89-.272 2.595-.624A6.776 6.776 0 0 0 16.8 14.6a1 1 0 0 0-1.6-1.2c-.041.05-.181.206-.181.206a4.752 4.752 0 0 1-1.318.982c-.48.239-1.05.412-1.701.412s-1.221-.173-1.701-.413a4.737 4.737 0 0 1-.91-.6 4.959 4.959 0 0 1-.408-.382A7.103 7.103 0 0 1 8.8 13.4a1 1 0 0 0-1.6 1.2zM9 10a1 1 0 1 0 0-2 1 1 0 0 0 0 2zm6 0a1 1 0 1 0 0-2 1 1 0 0 0 0 2z"/></symbol><symbol id="icon-user" viewBox="0 0 24 24"><path d="M21 21v-2c0-1.38-.561-2.632-1.464-3.536S17.38 14 16 14H8c-1.38 0-2.632.561-3.536 1.464S3 17.62 3 19v2a1 1 0 0 0 2 0v-2c0-.829.335-1.577.879-2.121S7.171 16 8 16h8c.829 0 1.577.335 2.121.879S19 18.171 19 19v2a1 1 0 0 0 2 0zM17 7c0-1.38-.561-2.632-1.464-3.536S13.38 2 12 2s-2.632.561-3.536 1.464S7 5.62 7 7s.561 2.632 1.464 3.536S10.62 12 12 12s2.632-.561 3.536-1.464S17 8.38 17 7zm-2 0c0 .829-.335 1.577-.879 2.121S12.829 10 12 10s-1.577-.335-2.121-.879S9 7.829 9 7s.335-1.577.879-2.121S11.171 4 12 4s1.577.335 2.121.879S15 6.171 15 7z"/></symbol><symbol id="icon-upload-cloud" viewBox="0 0 24 24"><path d="M11 14.414V21a1 1 0 0 0 2 0v-6.586l2.293 2.293a.999.999 0 1 0 1.414-1.414l-4-4A1.008 1.008 0 0 0 12 11a.997.997 0 0 0-.707.293l-4 4a.999.999 0 1 0 1.414 1.414zm9.869 4.854c1.454-.793 2.451-2.102 2.884-3.574s.305-3.112-.488-4.566a5.967 5.967 0 0 0-2.959-2.663A6.09 6.09 0 0 0 18.007 8h-.527a8.971 8.971 0 0 0-3.917-4.752C11.58 2.08 9.148 1.667 6.742 2.289S2.409 4.451 1.24 6.434s-1.581 4.415-.959 6.821a8.904 8.904 0 0 0 1.975 3.713 1 1 0 1 0 1.487-1.337 6.885 6.885 0 0 1-1.526-2.877c-.484-1.872-.164-3.761.746-5.305s2.407-2.74 4.279-3.224 3.761-.164 5.305.746 2.74 2.407 3.224 4.279c.116.435.506.75.969.75h1.253a4.11 4.11 0 0 1 1.545.312 3.97 3.97 0 0 1 1.97 1.773c.529.97.615 2.061.325 3.044s-.953 1.854-1.923 2.382a1 1 0 1 0 .958 1.756z"/></symbol><symbol id="icon-users" viewBox="0 0 24 24"><path d="M18 21v-2c0-1.38-.561-2.632-1.464-3.536S14.38 14 13 14H5c-1.38 0-2.632.561-3.536 1.464S0 17.62 0 19v2a1 1 0 0 0 2 0v-2c0-.829.335-1.577.879-2.121S4.171 16 5 16h8c.829 0 1.577.335 2.121.879S16 18.171 16 19v2a1 1 0 0 0 2 0zM14 7c0-1.38-.561-2.632-1.464-3.536S10.38 2 9 2s-2.632.561-3.536 1.464S4 5.62 4 7s.561 2.632 1.464 3.536S7.62 12 9 12s2.632-.561 3.536-1.464S14 8.38 14 7zm-2 0c0 .829-.335 1.577-.879 2.121S9.829 10 9 10s-1.577-.335-2.121-.879S6 7.829 6 7s.335-1.577.879-2.121S8.171 4 9 4s1.577.335 2.121.879S12 6.171 12 7zm12 14v-2a4.972 4.972 0 0 0-1.215-3.261 5.055 5.055 0 0 0-2.529-1.576 1 1 0 1 0-.511 1.933 3.049 3.049 0 0 1 1.528.952c.454.526.726 1.206.727 1.952v2a1 1 0 0 0 2 0zM15.752 4.099c.803.206 1.445.715 1.837 1.377s.531 1.47.325 2.273a2.969 2.969 0 0 1-1.105 1.652 3.08 3.08 0 0 1-1.063.511 1 1 0 1 0 .508 1.934 5.074 5.074 0 0 0 1.752-.844 4.965 4.965 0 0 0 1.845-2.758c.342-1.337.11-2.689-.542-3.788s-1.725-1.953-3.062-2.296a1 1 0 0 0-.496 1.938z"/></symbol><symbol id="icon-chevron-down" viewBox="0 0 20 20"><path d="M4.516 7.548c.436-.446 1.043-.481 1.576 0L10 11.295l3.908-3.747c.533-.481 1.141-.446 1.574 0 .436.445.408 1.197 0 1.615-.406.418-4.695 4.502-4.695 4.502a1.095 1.095 0 0 1-1.576 0S4.924 9.581 4.516 9.163s-.436-1.17 0-1.615z"/></symbol><symbol id="icon-chevron-left" viewBox="0 0 20 20"><path d="M12.452 4.516c.446.436.481 1.043 0 1.576L8.705 10l3.747 3.908c.481.533.446 1.141 0 1.574-.445.436-1.197.408-1.615 0-.418-.406-4.502-4.695-4.502-4.695a1.095 1.095 0 0 1 0-1.576s4.084-4.287 4.502-4.695 1.17-.436 1.615 0z"/></symbol><symbol id="icon-chevron-right" viewBox="0 0 20 20"><path d="M9.163 4.516c.418.408 4.502 4.695 4.502 4.695a1.095 1.095 0 0 1 0 1.576s-4.084 4.289-4.502 4.695c-.418.408-1.17.436-1.615 0-.446-.434-.481-1.041 0-1.574L11.295 10 7.548 6.092c-.481-.533-.446-1.141 0-1.576s1.197-.409 1.615 0z"/></symbol><symbol id="icon-chevron-small-down" viewBox="0 0 20 20"><path d="M13.418 7.859c.271-.268.709-.268.978 0s.272.701 0 .969l-3.908 3.83a.697.697 0 0 1-.979 0l-3.908-3.83c-.27-.267-.27-.701 0-.969s.709-.268.978 0L10 11l3.418-3.141z"/></symbol><symbol id="icon-chevron-small-left" viewBox="0 0 20 20"><path d="M12.141 13.418c.268.271.268.709 0 .978s-.701.272-.969 0l-3.83-3.908a.697.697 0 0 1 0-.979l3.83-3.908c.267-.27.701-.27.969 0s.268.709 0 .978L9 10l3.141 3.418z"/></symbol><symbol id="icon-chevron-small-right" viewBox="0 0 20 20"><path d="M11 10 7.859 6.58a.695.695 0 0 1 0-.978.68.68 0 0 1 .969 0l3.83 3.908a.697.697 0 0 1 0 .979l-3.83 3.908c-.267.272-.701.27-.969 0s-.268-.707 0-.978L11 10z"/></symbol><symbol id="icon-chevron-small-up" viewBox="0 0 20 20"><path d="M6.582 12.141c-.271.268-.709.268-.978 0s-.272-.701 0-.969l3.908-3.83a.697.697 0 0 1 .979 0l3.908 3.83c.27.267.27.701 0 .969s-.709.268-.979 0L10 9l-3.418 3.141z"/></symbol><symbol id="icon-chevron-thin-down" viewBox="0 0 20 20"><path d="M17.418 6.109c.272-.268.709-.268.979 0s.271.701 0 .969l-7.908 7.83a.697.697 0 0 1-.979 0l-7.908-7.83c-.27-.268-.27-.701 0-.969s.709-.268.979 0L10 13.25l7.418-7.141z"/></symbol><symbol id="icon-chevron-thin-left" viewBox="0 0 20 20"><path d="M13.891 17.418c.268.272.268.709 0 .979s-.701.271-.969 0l-7.83-7.908a.697.697 0 0 1 0-.979l7.83-7.908c.268-.27.701-.27.969 0s.268.709 0 .979L6.75 10l7.141 7.418z"/></symbol><symbol id="icon-chevron-thin-right" viewBox="0 0 20 20"><path d="M13.25 10 6.109 2.58a.697.697 0 0 1 0-.979.68.68 0 0 1 .969 0l7.83 7.908a.697.697 0 0 1 0 .979l-7.83 7.908c-.268.271-.701.27-.969 0s-.268-.707 0-.979L13.25 10z"/></symbol><symbol id="icon-chevron-thin-up" viewBox="0 0 20 20"><path d="M2.582 13.891c-.272.268-.709.268-.979 0s-.271-.701 0-.969l7.908-7.83a.697.697 0 0 1 .979 0l7.908 7.83c.27.268.27.701 0 .969s-.709.268-.978 0L10 6.75l-7.418 7.141z"/></symbol><symbol id="icon-chevron-up" viewBox="0 0 20 20"><path d="M15.484 12.452c-.436.446-1.043.481-1.576 0L10 8.705l-3.908 3.747c-.533.481-1.141.446-1.574 0-.436-.445-.408-1.197 0-1.615.406-.418 4.695-4.502 4.695-4.502a1.095 1.095 0 0 1 1.576 0s4.287 4.084 4.695 4.502.436 1.17 0 1.615z"/></symbol><symbol id="icon-chevron-with-circle-down" viewBox="0 0 20 20"><path d="M12.505 8.698 10 11 7.494 8.698a.512.512 0 0 0-.718 0 .5.5 0 0 0 0 .71l2.864 2.807a.51.51 0 0 0 .717 0l2.864-2.807a.498.498 0 0 0 0-.71.51.51 0 0 0-.716 0zM10 .4A9.6 9.6 0 0 0 .4 10c0 5.303 4.298 9.6 9.6 9.6s9.6-4.297 9.6-9.6A9.6 9.6 0 0 0 10 .4zm0 17.954c-4.615 0-8.354-3.74-8.354-8.354S5.385 1.646 10 1.646a8.354 8.354 0 0 1 0 16.708z"/></symbol><symbol id="icon-chevron-with-circle-left" viewBox="0 0 20 20"><path d="M11.302 6.776a.5.5 0 0 0-.71 0L7.785 9.641a.51.51 0 0 0 0 .717l2.807 2.864a.498.498 0 0 0 .71 0 .51.51 0 0 0 0-.717L9 10l2.302-2.506a.512.512 0 0 0 0-.718zM10 .4A9.6 9.6 0 0 0 .4 10c0 5.303 4.298 9.6 9.6 9.6s9.6-4.297 9.6-9.6A9.6 9.6 0 0 0 10 .4zm0 17.954c-4.615 0-8.354-3.74-8.354-8.354S5.385 1.646 10 1.646a8.354 8.354 0 0 1 0 16.708z"/></symbol><symbol id="icon-chevron-with-circle-right" viewBox="0 0 20 20"><path d="M11 10 8.698 7.494a.512.512 0 0 1 0-.718.5.5 0 0 1 .71 0l2.807 2.864a.51.51 0 0 1 0 .717l-2.807 2.864a.498.498 0 0 1-.71 0 .51.51 0 0 1 0-.717L11 10zM10 .4a9.6 9.6 0 0 1 9.6 9.6c0 5.303-4.298 9.6-9.6 9.6S.4 15.303.4 10A9.6 9.6 0 0 1 10 .4zm0 17.954a8.354 8.354 0 1 0 0-16.709 8.354 8.354 0 0 0 0 16.709z"/></symbol><symbol id="icon-chevron-with-circle-up" viewBox="0 0 20 20"><path d="M10.359 7.785a.51.51 0 0 0-.717 0l-2.864 2.807a.498.498 0 0 0 0 .71.51.51 0 0 0 .717 0L10 9l2.506 2.302a.512.512 0 0 0 .718 0 .5.5 0 0 0 0-.71l-2.865-2.807zM10 .4A9.6 9.6 0 0 0 .4 10c0 5.303 4.298 9.6 9.6 9.6s9.6-4.297 9.6-9.6A9.6 9.6 0 0 0 10 .4zm0 17.954c-4.615 0-8.354-3.74-8.354-8.354S5.385 1.646 10 1.646a8.354 8.354 0 0 1 0 16.708z"/></symbol><symbol id="icon-cloud" viewBox="0 0 20 20"><path d="M20 11.32c0 2.584-2.144 4.68-4.787 4.68H3.617C1.619 16 0 14.416 0 12.463c0-1.951 1.619-3.535 3.617-3.535.146 0 .288.012.429.027a5.076 5.076 0 0 1-.057-.756C3.989 5.328 6.37 3 9.309 3c2.407 0 4.439 1.562 5.096 3.707a5 5 0 0 1 .809-.066C17.856 6.641 20 8.734 20 11.32z"/></symbol><symbol id="icon-dots-three-horizontal" viewBox="0 0 20 20"><path d="M10.001 7.8a2.2 2.2 0 1 0 0 4.402A2.2 2.2 0 0 0 10 7.8zm-7 0a2.2 2.2 0 1 0 0 4.402A2.2 2.2 0 0 0 3 7.8zm14 0a2.2 2.2 0 1 0 0 4.402A2.2 2.2 0 0 0 17 7.8z"/></symbol><symbol id="icon-dots-three-vertical" viewBox="0 0 20 20"><path d="M10.001 7.8a2.2 2.2 0 1 0 0 4.402A2.2 2.2 0 0 0 10 7.8zm0-2.6A2.2 2.2 0 1 0 9.999.8a2.2 2.2 0 0 0 .002 4.4zm0 9.6a2.2 2.2 0 1 0 0 4.402 2.2 2.2 0 0 0 0-4.402z"/></symbol><symbol id="icon-download" viewBox="0 0 20 20"><path d="M15 7h-3V1H8v6H5l5 5 5-5zm4.338 6.532c-.21-.224-1.611-1.723-2.011-2.114A1.503 1.503 0 0 0 16.285 11h-1.757l3.064 2.994h-3.544a.274.274 0 0 0-.24.133L12.992 16H7.008l-.816-1.873a.276.276 0 0 0-.24-.133H2.408L5.471 11H3.715c-.397 0-.776.159-1.042.418-.4.392-1.801 1.891-2.011 2.114-.489.521-.758.936-.63 1.449l.561 3.074c.128.514.691.936 1.252.936h16.312c.561 0 1.124-.422 1.252-.936l.561-3.074c.126-.513-.142-.928-.632-1.449z"/></symbol><symbol id="icon-resize-100" viewBox="0 0 20 20"><path d="M4.1 14.1 1 17l2 2 2.9-3.1L8 18v-6H2l2.1 2.1zM19 3l-2-2-2.9 3.1L12 2v6h6l-2.1-2.1L19 3z"/></symbol><symbol id="icon-resize-full-screen" viewBox="0 0 20 20"><path d="m6.987 10.987-2.931 3.031L2 11.589V18h6.387l-2.43-2.081 3.03-2.932-2-2zM11.613 2l2.43 2.081-3.03 2.932 2 2 2.931-3.031L18 8.411V2h-6.387z"/></symbol><symbol id="icon-triangle-down" viewBox="0 0 20 20"><path d="M5 6h10l-5 9-5-9z"/></symbol><symbol id="icon-triangle-left" viewBox="0 0 20 20"><path d="M14 5v10l-9-5 9-5z"/></symbol><symbol id="icon-triangle-right" viewBox="0 0 20 20"><path d="m15 10-9 5V5l9 5z"/></symbol><symbol id="icon-triangle-up" viewBox="0 0 20 20"><path d="M15 14H5l5-9 5 9z"/></symbol><symbol id="icon-align-top" viewBox="0 0 20 20"><path d="M10 6 7 9h2v8h2V9h2l-3-3zm8-2c0-.553-.048-1-.6-1H2.6c-.552 0-.6.447-.6 1s.048 1 .6 1h14.8c.552 0 .6-.447.6-1z"/></symbol><symbol id="icon-check" viewBox="0 0 20 20"><path d="M8.294 16.998c-.435 0-.847-.203-1.111-.553L3.61 11.724a1.392 1.392 0 0 1 .27-1.951 1.392 1.392 0 0 1 1.953.27l2.351 3.104 5.911-9.492c.407-.652 1.267-.852 1.921-.445s.854 1.266.446 1.92L9.478 16.34a1.39 1.39 0 0 1-1.12.656c-.022.002-.042.002-.064.002z"/></symbol><symbol id="icon-cog" viewBox="0 0 20 20"><path d="M16.783 10c0-1.049.646-1.875 1.617-2.443a8.932 8.932 0 0 0-.692-1.672c-1.089.285-1.97-.141-2.711-.883-.741-.74-.968-1.621-.683-2.711a8.732 8.732 0 0 0-1.672-.691c-.568.97-1.595 1.615-2.642 1.615-1.048 0-2.074-.645-2.643-1.615a8.697 8.697 0 0 0-1.671.691c.285 1.09.059 1.971-.684 2.711-.74.742-1.621 1.168-2.711.883A8.797 8.797 0 0 0 1.6 7.557c.97.568 1.615 1.394 1.615 2.443 0 1.047-.645 2.074-1.615 2.643a8.89 8.89 0 0 0 .691 1.672c1.09-.285 1.971-.059 2.711.682s.969 1.623.684 2.711a8.841 8.841 0 0 0 1.672.693c.568-.973 1.595-1.617 2.643-1.617 1.047 0 2.074.645 2.643 1.617a8.963 8.963 0 0 0 1.672-.693c-.285-1.088-.059-1.969.683-2.711.741-.74 1.622-1.166 2.711-.883a8.811 8.811 0 0 0 .692-1.672c-.973-.569-1.619-1.395-1.619-2.442zM10 13.652a3.652 3.652 0 1 1 0-7.306 3.654 3.654 0 0 1 0 7.306z"/></symbol><symbol id="icon-cross" viewBox="0 0 20 20"><path d="M14.348 14.849a1.2 1.2 0 0 1-1.697 0L10 11.819l-2.651 3.029a1.2 1.2 0 1 1-1.697-1.697l2.758-3.15-2.759-3.152a1.2 1.2 0 1 1 1.697-1.697L10 8.183l2.651-3.031a1.2 1.2 0 1 1 1.697 1.697l-2.758 3.152 2.758 3.15a1.2 1.2 0 0 1 0 1.698z"/></symbol><symbol id="icon-grid" viewBox="0 0 20 20"><path d="M8 4H5a1 1 0 0 0-1 1v3a1 1 0 0 0 1 1h3a1 1 0 0 0 1-1V5a1 1 0 0 0-1-1zm7 0h-3a1 1 0 0 0-1 1v3a1 1 0 0 0 1 1h3a1 1 0 0 0 1-1V5a1 1 0 0 0-1-1zm-7 7H5a1 1 0 0 0-1 1v3a1 1 0 0 0 1 1h3a1 1 0 0 0 1-1v-3a1 1 0 0 0-1-1zm7 0h-3a1 1 0 0 0-1 1v3a1 1 0 0 0 1 1h3a1 1 0 0 0 1-1v-3a1 1 0 0 0-1-1z"/></symbol><symbol id="icon-heart-outlined" viewBox="0 0 20 20"><path d="M17.19 4.156c-1.672-1.535-4.383-1.535-6.055 0L10 5.197 8.864 4.156c-1.672-1.535-4.382-1.535-6.054 0-1.881 1.726-1.881 4.519 0 6.245L10 17l7.19-6.599c1.88-1.726 1.88-4.52 0-6.245zm-1.066 5.219L10 15.09 3.875 9.375c-.617-.567-.856-1.307-.856-2.094s.138-1.433.756-1.999c.545-.501 1.278-.777 2.063-.777s1.517.476 2.062.978L10 7.308l2.099-1.826c.546-.502 1.278-.978 2.063-.978s1.518.276 2.063.777c.618.566.755 1.212.755 1.999s-.238 1.528-.856 2.095z"/></symbol><symbol id="icon-heart" viewBox="0 0 20 20"><path d="M17.19 4.155c-1.672-1.534-4.383-1.534-6.055 0L10 5.197 8.864 4.155c-1.672-1.534-4.382-1.534-6.054 0-1.881 1.727-1.881 4.52 0 6.246L10 17l7.19-6.599c1.88-1.726 1.88-4.52 0-6.246z"/></symbol><symbol id="icon-location-pin" viewBox="0 0 20 20"><path d="M10 2.009c-2.762 0-5 2.229-5 4.99 0 4.774 5 11 5 11s5-6.227 5-11c0-2.76-2.238-4.99-5-4.99zm0 7.751a2.7 2.7 0 1 1 0-5.4 2.7 2.7 0 0 1 0 5.4z"/></symbol><symbol id="icon-menu" viewBox="0 0 20 20"><path d="M16.4 9H3.6c-.552 0-.6.447-.6 1s.048 1 .6 1h12.8c.552 0 .6-.447.6-1s-.048-1-.6-1zm0 4H3.6c-.552 0-.6.447-.6 1s.048 1 .6 1h12.8c.552 0 .6-.447.6-1s-.048-1-.6-1zM3.6 7h12.8c.552 0 .6-.447.6-1s-.048-1-.6-1H3.6c-.552 0-.6.447-.6 1s.048 1 .6 1z"/></symbol><symbol id="icon-star" viewBox="0 0 20 20"><path d="m10 1.3 2.388 6.722H18.8l-5.232 3.948 1.871 6.928L10 14.744l-5.438 4.154 1.87-6.928-5.233-3.948h6.412L10 1.3z"/></symbol><symbol id="icon-sweden" viewBox="0 0 20 20"><path d="M18 4H9v5h10V5a1 1 0 0 0-1-1zM1 15c0 .553.248 1 .8 1H7v-5H1v4zm8 1h9a1 1 0 0 0 1-1v-4H9v5zM1 5v4h6V4H1.8c-.552 0-.8.447-.8 1z"/></symbol></defs></svg>